<?xml version="1.0" standalone="no"?><svg xmlns="http://www.w3.org/2000/svg" viewBox="0 0 1440 320"><path fill="#01B8C6" fill-opacity="1" d="M0,224L17.1,186.7C34.3,149,69,75,103,80C137.1,85,171,171,206,213.3C240,256,274,256,309,261.3C342.9,267,377,277,411,277.3C445.7,277,480,267,514,245.3C548.6,224,583,192,617,197.3C651.4,203,686,245,720,224C754.3,203,789,117,823,106.7C857.1,96,891,160,926,181.3C960,203,994,181,1029,176C1062.9,171,1097,181,1131,176C1165.7,171,1200,149,1234,165.3C1268.6,181,1303,235,1337,250.7C1371.4,267,1406,245,1423,234.7L1440,224L1440,320L1422.9,320C1405.7,320,1371,320,1337,320C1302.9,320,1269,320,1234,320C1200,320,1166,320,1131,320C1097.1,320,1063,320,1029,320C994.3,320,960,320,926,320C891.4,320,857,320,823,320C788.6,320,754,320,720,320C685.7,320,651,320,617,320C582.9,320,549,320,514,320C480,320,446,320,411,320C377.1,320,343,320,309,320C274.3,320,240,320,206,320C171.4,320,137,320,103,320C68.6,320,34,320,17,320L0,320Z"></path></svg>